# xmcd
#
# Track frame offsets:
#	150
#	17518
#	28050
#	39591
#	57766
#	68505
#	77822
#	90300
#	103823
#	121510
#	137017
#	149310
#	163731
#	173778
#	188617
#	198084
#	211650
#	232046
#	245794
#	256512
#	268695
#	280902
#	298594
#	317515
#
# Disc length: 4356 seconds
#
# Revision: 0
# Processed by: cddbd v1.5.2PL0 Copyright (c) Steve Scherf et al.
# Submitted via: EasyCDDAExtractor 12.0.4.1
#
DISCID=44110218
DTITLE=Various Artist - Greatest Oldies Collector Edition
DYEAR=1900
DGENRE=Oldies
TTITLE0=Downtown
TTITLE1=Travelin' man
TTITLE2=Before the next tear drop falls
TTITLE3=Spanish eyes
TTITLE4=Am I that easy to forget
TTITLE5=Dedicated to the one I love
TTITLE6=I can't stop loving you
TTITLE7=Love is a many splendor things
TTITLE8=When a man loves a woman
TTITLE9=If you don't know me by now
TTITLE10=Wasted days and wasted nights
TTITLE11=As time goes by
TTITLE12=My boyfriend's back
TTITLE13=Warm and tender love
TTITLE14=Little darling
TTITLE15=Spanish harlem
TTITLE16=You send me
TTITLE17=Stand by me
TTITLE18=Sexteen tons
TTITLE19=Will you love me tomorrow
TTITLE20=Under the boardwalk
TTITLE21=If loving you was wrong
TTITLE22=Kiss me goodbye
TTITLE23=Love me with all your heart
EXTD=
EXTT0=
EXTT1=
EXTT2=
EXTT3=
EXTT4=
EXTT5=
EXTT6=
EXTT7=
EXTT8=
EXTT9=
EXTT10=
EXTT11=
EXTT12=
EXTT13=
EXTT14=
EXTT15=
EXTT16=
EXTT17=
EXTT18=
EXTT19=
EXTT20=
EXTT21=
EXTT22=
EXTT23=
PLAYORDER=
